<?xml version="1.0" encoding="utf-8"?>
<!-- Generator: Adobe Illustrator 15.0.2, SVG Export Plug-In  -->
<!DOCTYPE svg PUBLIC "-//W3C//DTD SVG 1.1//EN" "http://www.w3.org/Graphics/SVG/1.1/DTD/svg11.dtd" [
	<!ENTITY ns_flows "http://ns.adobe.com/Flows/1.0/">
]>
<svg version="1.1"
	 xmlns="http://www.w3.org/2000/svg" xmlns:xlink="http://www.w3.org/1999/xlink" xmlns:a="http://ns.adobe.com/AdobeSVGViewerExtensions/3.0/"
	 x="0px" y="0px" width="34px" height="37px" viewBox="0 0 34 37" overflow="visible" enable-background="new 0 0 34 37"
	 xml:space="preserve">
<defs>
</defs>
<linearGradient id="SVGID_1_" gradientUnits="userSpaceOnUse" x1="16.9053" y1="36.5498" x2="16.9053" y2="3.552714e-14">
	<stop  offset="0" style="stop-color:#0071BC"/>
	<stop  offset="1" style="stop-color:#29ABE2"/>
</linearGradient>
<path fill="url(#SVGID_1_)" d="M22.54,8.453c0-0.861-0.307-1.604-0.92-2.231c-0.614-0.626-1.35-0.939-2.211-0.939
	c-1.043,0-1.878,0.418-2.505,1.252v18.783c0,0.783-0.248,1.415-0.743,1.898c-0.496,0.482-1.135,0.724-1.917,0.724
	s-1.416-0.241-1.898-0.724c-0.483-0.483-0.724-1.115-0.724-1.898V8.453c0-0.861-0.313-1.604-0.94-2.231
	c-0.625-0.626-1.369-0.939-2.23-0.939c-0.887,0-1.638,0.307-2.25,0.92c-0.613,0.613-0.919,1.363-0.919,2.25v16.866
	c0,0.783-0.242,1.415-0.724,1.898c-0.483,0.482-1.115,0.724-1.898,0.724s-1.422-0.241-1.917-0.724C0.247,26.734,0,26.102,0,25.319
	V8.453C0,6.08,0.815,4.077,2.446,2.446C4.076,0.816,6.078,0,8.452,0c2.061,0,3.887,0.679,5.479,2.035
	C15.496,0.679,17.321,0,19.409,0c2.374,0,4.37,0.816,5.987,2.446c1.617,1.631,2.426,3.634,2.426,6.007v19.644
	c0,0.887,0.306,1.637,0.92,2.25c0.613,0.613,1.362,0.919,2.25,0.919h0.156c0.783,0,1.422,0.248,1.918,0.744
	c0.495,0.496,0.744,1.135,0.744,1.918s-0.249,1.415-0.744,1.898c-0.496,0.482-1.135,0.724-1.918,0.724h-0.156
	c-2.375,0-4.377-0.815-6.007-2.445c-1.631-1.631-2.446-3.633-2.446-6.007V8.453z"/>
</svg>
