<?xml version="1.0" encoding="utf-8"?>
<!-- Generator: Adobe Illustrator 15.0.2, SVG Export Plug-In . SVG Version: 6.00 Build 0)  -->
<!DOCTYPE svg PUBLIC "-//W3C//DTD SVG 1.1//EN" "http://www.w3.org/Graphics/SVG/1.1/DTD/svg11.dtd">
<svg version="1.1" id="Ebene_1" xmlns="http://www.w3.org/2000/svg" xmlns:xlink="http://www.w3.org/1999/xlink" x="0px" y="0px"
	 width="37px" height="37px" viewBox="0 0 37 37" enable-background="new 0 0 37 37" xml:space="preserve">
<linearGradient id="SVGID_1_" gradientUnits="userSpaceOnUse" x1="79.9062" y1="-553.0493" x2="79.9062" y2="-516.5" gradientTransform="matrix(1 0 0 -1 -63 -516.5)">
	<stop  offset="0" style="stop-color:#0071BC"/>
	<stop  offset="1" style="stop-color:#29ABE2"/>
</linearGradient>
<path fill="url(#SVGID_1_)" d="M22.54,8.453c0-0.861-0.308-1.604-0.92-2.231c-0.614-0.626-1.351-0.939-2.211-0.939
	c-1.043,0-1.878,0.418-2.505,1.252v18.783c0,0.783-0.248,1.414-0.743,1.896c-0.496,0.481-1.135,0.726-1.917,0.726
	c-0.782,0-1.416-0.24-1.898-0.726c-0.483-0.481-0.724-1.112-0.724-1.896V8.453c0-0.861-0.313-1.604-0.94-2.231
	c-0.625-0.626-1.369-0.939-2.23-0.939c-0.887,0-1.638,0.307-2.25,0.92c-0.613,0.613-0.919,1.363-0.919,2.25v16.865
	c0,0.783-0.242,1.416-0.724,1.896c-0.483,0.482-1.115,0.727-1.898,0.727c-0.783,0-1.422-0.241-1.917-0.727
	C0.247,26.734,0,26.102,0,25.318V8.453C0,6.08,0.815,4.077,2.446,2.446C4.076,0.816,6.078,0,8.452,0
	c2.061,0,3.887,0.679,5.479,2.035C15.496,0.679,17.321,0,19.409,0c2.374,0,4.37,0.816,5.987,2.446
	c1.617,1.631,2.426,3.634,2.426,6.007v19.645c0,0.887,0.306,1.637,0.92,2.25c0.613,0.612,1.361,0.918,2.25,0.918h0.156
	c0.783,0,1.422,0.248,1.918,0.744c0.494,0.496,0.744,1.135,0.744,1.918s-0.25,1.415-0.744,1.898
	c-0.496,0.482-1.135,0.724-1.918,0.724h-0.156c-2.375,0-4.377-0.815-6.008-2.444c-1.631-1.631-2.445-3.633-2.445-6.008L22.54,8.453
	L22.54,8.453z"/>
<g>
	<linearGradient id="SVGID_2_" gradientUnits="userSpaceOnUse" x1="14.5347" y1="28.2529" x2="14.5347" y2="19.6846">
		<stop  offset="0" style="stop-color:#C70040"/>
		<stop  offset="1" style="stop-color:#AB0014"/>
	</linearGradient>
	<path fill="url(#SVGID_2_)" d="M14.529,22.12c0.864,0,1.592,0.297,2.185,0.889c0.592,0.592,0.888,1.319,0.888,2.184
		c0,0.856-0.298,1.58-0.894,2.172c-0.597,0.593-1.323,0.889-2.179,0.889s-1.58-0.296-2.172-0.889
		c-0.592-0.592-0.888-1.315-0.888-2.172v-4.704c0-0.231,0.076-0.424,0.228-0.576c0.152-0.151,0.344-0.228,0.576-0.228
		c0.24,0,0.436,0.074,0.588,0.222c0.152,0.148,0.228,0.342,0.228,0.582v4.704c0,0.4,0.14,0.74,0.42,1.021
		c0.28,0.279,0.62,0.42,1.02,0.42s0.742-0.141,1.026-0.42c0.284-0.28,0.426-0.62,0.426-1.021c0-0.399-0.142-0.742-0.426-1.025
		c-0.284-0.284-0.626-0.427-1.026-0.427c-0.24,0-0.434-0.073-0.582-0.222s-0.222-0.342-0.222-0.582s0.074-0.436,0.222-0.588
		S14.289,22.12,14.529,22.12z"/>
	<linearGradient id="SVGID_3_" gradientUnits="userSpaceOnUse" x1="21.0078" y1="28.2764" x2="21.0078" y2="22.1445">
		<stop  offset="0" style="stop-color:#C70040"/>
		<stop  offset="1" style="stop-color:#AB0014"/>
	</linearGradient>
	<path fill="url(#SVGID_3_)" d="M23.42,24.293l-1.535,1.5c-0.176,0.168-0.364,0.252-0.563,0.252c-0.225,0-0.418-0.084-0.582-0.252
		s-0.246-0.364-0.246-0.589c0-0.199,0.088-0.388,0.264-0.563l0.863-0.853c-0.104-0.016-0.207-0.023-0.311-0.023
		c-0.4,0-0.74,0.14-1.021,0.42c-0.279,0.28-0.42,0.62-0.42,1.02c0,0.4,0.141,0.742,0.42,1.026c0.281,0.284,0.621,0.426,1.021,0.426
		h1.067c0.238,0,0.434,0.074,0.582,0.223c0.146,0.147,0.221,0.342,0.221,0.582c0,0.239-0.074,0.436-0.221,0.588
		c-0.148,0.151-0.344,0.228-0.582,0.228H21.31c-0.865,0-1.59-0.296-2.18-0.888c-0.587-0.592-0.881-1.32-0.881-2.185
		c0-0.863,0.294-1.59,0.881-2.178c0.59-0.588,1.314-0.882,2.18-0.882c0.87,0,1.61,0.312,2.218,0.936
		c0.16,0.168,0.24,0.353,0.24,0.553C23.768,23.896,23.652,24.116,23.42,24.293z"/>
	<linearGradient id="SVGID_4_" gradientUnits="userSpaceOnUse" x1="27.002" y1="28.2529" x2="27.002" y2="20.7168">
		<stop  offset="0" style="stop-color:#C70040"/>
		<stop  offset="1" style="stop-color:#AB0014"/>
	</linearGradient>
	<path fill="url(#SVGID_4_)" d="M29.588,25.66c0,0.729-0.248,1.343-0.744,1.843s-1.108,0.75-1.836,0.75
		c-0.736,0-1.353-0.248-1.849-0.744s-0.743-1.112-0.743-1.849v-4.128c0-0.239,0.073-0.436,0.222-0.588
		c0.147-0.151,0.342-0.228,0.582-0.228s0.436,0.076,0.588,0.228c0.151,0.152,0.228,0.349,0.228,0.588v0.637h2.748
		c0.24,0,0.435,0.073,0.582,0.222c0.148,0.148,0.223,0.342,0.223,0.582c0,0.544-0.269,0.815-0.805,0.815h-2.748v1.872
		c0,0.272,0.095,0.503,0.282,0.69c0.188,0.188,0.418,0.282,0.69,0.282c0.271,0,0.5-0.094,0.684-0.282
		c0.185-0.188,0.276-0.418,0.276-0.69v-0.107c0-0.232,0.078-0.424,0.233-0.576c0.156-0.152,0.351-0.229,0.582-0.229
		c0.232,0,0.424,0.076,0.576,0.229s0.229,0.344,0.229,0.576V25.66z"/>
	<linearGradient id="SVGID_5_" gradientUnits="userSpaceOnUse" x1="33.3145" y1="28.2764" x2="33.3145" y2="22.1445">
		<stop  offset="0" style="stop-color:#C70040"/>
		<stop  offset="1" style="stop-color:#AB0014"/>
	</linearGradient>
	<path fill="url(#SVGID_5_)" d="M33.308,28.276c-0.864,0-1.59-0.296-2.178-0.888s-0.882-1.32-0.882-2.185
		c0-0.863,0.294-1.59,0.882-2.178s1.313-0.882,2.178-0.882s1.592,0.294,2.184,0.882c0.593,0.588,0.889,1.314,0.889,2.178v2.244
		c0,0.24-0.076,0.435-0.229,0.582c-0.151,0.148-0.348,0.223-0.588,0.223s-0.434-0.074-0.582-0.223
		c-0.148-0.147-0.222-0.342-0.222-0.582v-2.244c0-0.399-0.143-0.739-0.426-1.02c-0.284-0.28-0.626-0.42-1.026-0.42
		s-0.74,0.14-1.02,0.42c-0.28,0.28-0.421,0.62-0.421,1.02c0,0.4,0.141,0.742,0.421,1.026c0.279,0.284,0.619,0.426,1.02,0.426
		c0.24,0,0.436,0.074,0.588,0.223c0.152,0.147,0.229,0.342,0.229,0.582c0,0.239-0.076,0.436-0.229,0.588
		C33.743,28.2,33.548,28.276,33.308,28.276z"/>
</g>
</svg>
